<?xml version="1.0" encoding="UTF-8"?>
<svg id="Layer_1" data-name="Layer 1" xmlns="http://www.w3.org/2000/svg" viewBox="0 0 605.76 211.43">
  <defs>
    <style>
      .cls-1 {
        fill: #fff;
      }
    </style>
  </defs>
  <path class="cls-1" d="M553.51,31.01H180.51C161.37,11.85,134.93,0,105.71,0,47.33,0,0,47.33,0,105.72s47.33,105.71,105.71,105.71c29.09,0,55.44-11.75,74.55-30.76h373.25c28.74,0,52.25-23.52,52.25-52.26v-45.16c0-28.73-23.51-52.24-52.25-52.24ZM161.55,180.67H50.34v-20.98l39.82-57.52,1.59-2.3,1.59-2.29,28.56-41.26H55.23v-25.16h102.37v20.46l-64.17,92.62-1.4,2.02-1.32,1.91-5.08,7.33h75.92v25.17ZM602.59,128.41c0,13.06-5.12,25.37-14.42,34.66-9.3,9.3-21.6,14.42-34.66,14.42H183.31c17.45-18.85,28.12-44.06,28.12-71.77s-10.58-52.72-27.89-71.54h369.97c13.06,0,25.36,5.12,34.66,14.41,9.3,9.3,14.42,21.61,14.42,34.66v45.16Z"/>
  <path class="cls-1" d="M331.73,84.27c-.02-.39-.05-.77-.09-1.16-.19-2.2-.53-4.25-1.02-6.14-.52-2.06-1.21-3.95-2.07-5.65-1.38-2.73-3.1-5.11-5.18-7.14-.41-.4-.84-.79-1.28-1.17-.23-.19-.45-.37-.68-.56-.46-.36-.93-.71-1.41-1.05-.25-.16-.49-.33-.74-.49-4-2.57-8.75-4.4-14.27-5.48-5.52-1.08-11.56-1.63-18.12-1.63-9.14,0-17.18,1.14-24.12,3.41-5.64,1.84-10.27,4.58-13.89,8.23-.84.85-1.62,1.74-2.35,2.68-.73.94-1.39,1.94-1.99,2.98-.19.35-.39.71-.57,1.07-.36.72-.7,1.47-1,2.24-1.52,3.87-2.28,8.34-2.28,13.41h25.38c0-5.62,1.93-9.68,5.79-12.19,3.86-2.5,8.87-3.75,15.03-3.75,5.41,0,9.86,1.18,13.35,3.55.43.3.84.62,1.22.98.19.18.38.36.56.56,2.29,2.52,3.45,6.34,3.45,11.46v5.18c-14.29.27-26.69,1.25-37.22,2.94-10.52,1.69-18.66,4.84-24.41,9.44-1.08.86-2.06,1.81-2.94,2.83-.58.68-1.12,1.4-1.62,2.15-2.72,4.15-4.08,9.36-4.08,15.64,0,6.63,1.63,12.13,4.88,16.5,3.25,4.36,7.46,7.63,12.64,9.79,5.18,2.17,10.71,3.25,16.6,3.25,8.06,0,14.99-1.34,20.82-4.01,5.82-2.67,10.99-6.24,15.53-10.71l.91,13h25.29v-66.51c0-1.26-.04-2.47-.12-3.65ZM305.04,124.88c-2.84,3.52-6.58,6.5-11.22,8.93-4.64,2.44-10,3.66-16.09,3.66-5.01,0-8.87-1.13-11.58-3.4-2.71-2.27-4.06-5.37-4.06-9.29,0-5.62,3.2-9.71,9.6-12.29,6.39-2.57,17.51-3.96,33.35-4.16v16.55Z"/>
  <path class="cls-1" d="M578.12,71.32c-1.37-2.73-3.1-5.11-5.17-7.14-.42-.4-.85-.79-1.29-1.17-.22-.19-.45-.37-.68-.56-.45-.36-.93-.71-1.41-1.05-.24-.16-.49-.33-.74-.49-3.99-2.57-8.75-4.4-14.27-5.48-5.51-1.08-11.55-1.63-18.12-1.63-9.14,0-17.18,1.14-24.11,3.41-6.94,2.26-12.36,5.9-16.25,10.91s-5.84,11.58-5.84,19.7h25.39c0-5.62,1.93-9.68,5.78-12.19,3.86-2.5,8.87-3.75,15.03-3.75,5.42,0,9.87,1.18,13.35,3.55,3.49,2.37,5.23,6.7,5.23,13v5.18c-14.28.27-26.69,1.25-37.21,2.94-10.53,1.69-18.67,4.84-24.42,9.44-5.75,4.61-8.63,11.48-8.63,20.62,0,6.63,1.62,12.13,4.87,16.5,3.25,4.36,7.47,7.63,12.64,9.79,5.18,2.17,10.72,3.25,16.61,3.25,8.05,0,14.99-1.34,20.81-4.01,5.46-2.51,10.36-5.8,14.68-9.88.29-.28.57-.55.85-.83h0s.92,13,.92,13h25.28v-66.51c0-6.7-1.1-12.23-3.3-16.6ZM554.62,124.88c-2.85,3.52-6.59,6.5-11.22,8.93-4.64,2.44-10.01,3.66-16.1,3.66-5.01,0-8.87-1.13-11.57-3.4-2.71-2.27-4.06-5.37-4.06-9.29,0-5.62,3.19-9.71,9.59-12.29,6.4-2.57,17.52-3.96,33.36-4.16v16.55Z"/>
  <polygon class="cls-1" points="465.16 55.33 424.45 154.43 393.58 154.43 352.97 55.33 381.2 55.33 409.11 131.73 437.75 55.33 465.16 55.33"/>
</svg>